<svg width="24" height="24" viewBox="0 0 24 24" fill="none" xmlns="http://www.w3.org/2000/svg">
<path fill-rule="evenodd" clip-rule="evenodd" d="M8.99809 1H14.9969C16.1012 1 16.9965 1.89543 16.9965 3V4H19.9958C21.1002 4 21.9954 4.89543 21.9954 6V8C21.9954 9.10457 21.1002 10 19.9958 10H19.9157L18.996 21C18.996 22.1046 18.1008 23 16.9965 23H6.99849C5.89415 23 4.9989 22.1046 5.00235 21.083L4.07896 10H3.9991C2.89476 10 1.99951 9.10457 1.99951 8V6C1.99951 4.89543 2.89476 4 3.9991 4H6.99849V3C6.99849 1.89543 7.89374 1 8.99809 1ZM3.9991 6H6.99849H16.9965H19.9958V8H3.9991V6ZM6.08517 10H17.9095L16.9999 20.917L16.9965 21H6.99849L6.08517 10ZM14.9969 3V4H8.99809V3H14.9969ZM8.29112 12.7071L9.70505 11.2929L11.9975 13.5858L14.2899 11.2929L15.7038 12.7071L13.4114 15L15.7038 17.2929L14.2899 18.7071L11.9975 16.4142L9.70505 18.7071L8.29112 17.2929L10.5835 15L8.29112 12.7071Z" fill="#E62F2F"/>
</svg>
