<svg width="24" height="24" viewBox="0 0 24 24" fill="none" xmlns="http://www.w3.org/2000/svg">
<path fill-rule="evenodd" clip-rule="evenodd" d="M16.4339 2C17.0885 2 17.716 2.26142 18.1743 2.72342L21.2746 5.82432C21.7362 6.286 21.9955 6.91217 21.9955 7.56508C21.9955 8.21799 21.7362 8.84416 21.2746 9.30584L9.9554 20.6238C9.25706 21.4295 8.26713 21.9245 7.13307 22.0023H1.99951V21.0023L2.00276 16.7873C2.08793 15.7328 2.57806 14.7523 3.32574 14.0934L14.6923 2.72463C15.1532 2.26083 15.7801 2 16.4339 2ZM7.06246 20.0048C7.59658 19.967 8.09376 19.7184 8.49298 19.2616L16.0533 11.6997L12.2997 7.94519L4.69507 15.5496C4.29 15.9079 4.0394 16.4092 3.9991 16.8678V20.0029L7.06246 20.0048ZM13.7138 6.53115L17.4673 10.2855L19.8607 7.89162C19.9473 7.80502 19.9959 7.68756 19.9959 7.56508C19.9959 7.4426 19.9473 7.32514 19.8607 7.23854L16.7576 4.13486C16.672 4.04855 16.5555 4 16.4339 4C16.3124 4 16.1958 4.04855 16.1102 4.13486L13.7138 6.53115Z" fill="#2F76E6"/>
</svg>
